<?xml version="1.0" encoding="UTF-8" standalone="no"?><svg xmlns="http://www.w3.org/2000/svg" xmlns:xlink="http://www.w3.org/1999/xlink" fill="#000000" height="732" preserveAspectRatio="xMidYMid meet" version="1" viewBox="0.0 0.0 732.0 732.0" width="732" zoomAndPan="magnify"><g data-name="Layer 2"><g data-name="Layer 1" id="change1_1"><path d="M649.07,732H82.89A83,83,0,0,1,0,649.07V82.89A83,83,0,0,1,82.89,0H649.07A83,83,0,0,1,732,82.89V649.07A83,83,0,0,1,649.07,732ZM82.89,20A63,63,0,0,0,20,82.89V649.07A63,63,0,0,0,82.89,712H649.07A63,63,0,0,0,712,649.07V82.89A63,63,0,0,0,649.07,20Z" fill="#b08fb8"/></g></g></svg>